<?xml version="1.0" encoding="UTF-8"?>
<svg version="1.1" xmlns="http://www.w3.org/2000/svg" width="200" height="200">
<path d="M0 0 C66 0 132 0 200 0 C200 66 200 132 200 200 C134 200 68 200 0 200 C0 134 0 68 0 0 Z " fill="#6F65C1" transform="translate(0,0)"/>
<path d="M0 0 C52.14 0 104.28 0 158 0 C158 28.05 158 56.1 158 85 C105.86 85 53.72 85 0 85 C0 56.95 0 28.9 0 0 Z " fill="#524A8E" transform="translate(21,31)"/>
<path d="M0 0 C26.07 0 52.14 0 79 0 C79 28.05 79 56.1 79 85 C52.93 85 26.86 85 0 85 C0 49.56233509 0 49.56233509 6.93066406 37.82226562 C8.6024215 34.97340774 10.03415416 32.02224614 11.5 29.0625 C11.9846875 28.14597656 12.469375 27.22945312 12.96875 26.28515625 C14.20566811 23.96210368 14.20566811 23.96210368 14 21 C11.36 20.01 8.72 19.02 6 18 C4.35 21.3 2.7 24.6 1 28 C0.67 28 0.34 28 0 28 C0 18.76 0 9.52 0 0 Z " fill="#352C6D" transform="translate(100,31)"/>
<path d="M0 0 C59.4 0 118.8 0 180 0 C180 5.61 180 11.22 180 17 C157.56 17 135.12 17 112 17 C111.5928826 31.97637976 111.5928826 31.97637976 117 39 C120.0783937 41.1752286 123.03886056 41.35991861 126.75 41.625 C127.73484375 41.69976562 128.7196875 41.77453125 129.734375 41.8515625 C130.48203125 41.90054688 131.2296875 41.94953125 132 42 C132 45.3 132 48.6 132 52 C104.28 52 76.56 52 48 52 C48 48.7 48 45.4 48 42 C48.72445312 41.97421875 49.44890625 41.9484375 50.1953125 41.921875 C56.1770579 41.57094594 60.363351 41.16109525 65 37 C68.14840253 31.35411136 68.14840253 31.35411136 68 17 C45.56 17 23.12 17 0 17 C0 11.39 0 5.78 0 0 Z " fill="#E9ECF4" transform="translate(10,127)"/>
<path d="M0 0 C29.7 0 59.4 0 90 0 C90 3.3 90 6.6 90 10 C63.93 10 37.86 10 11 10 C11 38.05 11 66.1 11 95 C37.07 95 63.14 95 90 95 C90 98.3 90 101.6 90 105 C119.7 105 149.4 105 180 105 C180 105.33 180 105.66 180 106 C120.6 106 61.2 106 0 106 C0 71.02 0 36.04 0 0 Z " fill="#8478E1" transform="translate(10,21)"/>
<path d="M0 0 C29.7 0 59.4 0 90 0 C90 34.65 90 69.3 90 105 C60.3 105 30.6 105 0 105 C0 101.7 0 98.4 0 95 C26.07 95 52.14 95 79 95 C79 66.95 79 38.9 79 10 C52.93 10 26.86 10 0 10 C0 6.7 0 3.4 0 0 Z " fill="#675DB3" transform="translate(100,21)"/>
<path d="M0 0 C29.7 0 59.4 0 90 0 C90 5.61 90 11.22 90 17 C60.3 17 30.6 17 0 17 C0 11.39 0 5.78 0 0 Z " fill="#F4F9FE" transform="translate(10,127)"/>
<path d="M0 0 C27.72 0 55.44 0 84 0 C84 3.3 84 6.6 84 10 C56.28 10 28.56 10 0 10 C0 6.7 0 3.4 0 0 Z " fill="#EAEDF5" transform="translate(58,169)"/>
<path d="M0 0 C7.26 0 14.52 0 22 0 C22 8.25 22 16.5 22 25 C11.77 25 1.54 25 -9 25 C-7.35 23.68 -5.7 22.36 -4 21 C-0.63928425 16.76386602 -0.47626713 12.88299901 -0.3125 7.6875 C-0.209375 5.150625 -0.10625 2.61375 0 0 Z " fill="#E9ECF4" transform="translate(78,144)"/>
<path d="M0 0 C7.26 0 14.52 0 22 0 C22.25 7.625 22.25 7.625 22.29785156 9.99072266 C22.54060955 15.02347912 23.70394643 18.01434657 27 22 C28.32 22.99 29.64 23.98 31 25 C20.77 25 10.54 25 0 25 C0 16.75 0 8.5 0 0 Z " fill="#CED2E6" transform="translate(100,144)"/>
<path d="M0 0 C6.15234375 1.953125 6.15234375 1.953125 8 3 C9.05305296 5.50585037 9.1063983 6.68468824 8.23071289 9.27978516 C7.8155542 10.10784668 7.40039551 10.9359082 6.97265625 11.7890625 C6.51366943 12.72266602 6.05468262 13.65626953 5.58178711 14.61816406 C5.08042236 15.61041992 4.57905762 16.60267578 4.0625 17.625 C3.04212029 19.69425342 2.0239161 21.76458095 1.0078125 23.8359375 C0.49895508 24.86944336 -0.00990234 25.90294922 -0.53417969 26.96777344 C-3.00781163 32.08478023 -5.28065245 37.28675131 -7.53686523 42.50244141 C-8.85538632 45.52810033 -10.16335129 48.24502694 -12 51 C-15.40312738 49.94124926 -18.01353231 48.99097846 -21 47 C-20.32449037 42.17629041 -18.43055415 38.08217501 -16.4375 33.6875 C-16.08397461 32.90004395 -15.73044922 32.11258789 -15.36621094 31.30126953 C-12.08583814 24.06037591 -8.56623175 16.94863766 -4.95117188 9.87011719 C-3.28246504 6.58924081 -1.64321553 3.29370193 0 0 Z " fill="#F8E505" transform="translate(106,48)"/>
<path d="M0 0 C3.36335594 1.45745424 5.54534005 3.31117854 8.109375 5.9140625 C8.86347656 6.67460938 9.61757812 7.43515625 10.39453125 8.21875 C11.17183594 9.0128125 11.94914062 9.806875 12.75 10.625 C13.54277344 11.42679688 14.33554688 12.22859375 15.15234375 13.0546875 C17.10614493 15.03202846 19.05512103 17.01388909 21 19 C16.93161827 23.8911484 12.65561922 28.47350753 8.125 32.9375 C7.23554688 33.82018555 7.23554688 33.82018555 6.328125 34.72070312 C4.88773534 36.14947674 3.4442033 37.57508132 2 39 C-1.32759923 37.44805246 -3.48580485 35.69378051 -6 33 C-4.46356148 29.31930113 -2.21849055 27.01224796 0.625 24.25 C1.44226563 23.45078125 2.25953125 22.6515625 3.1015625 21.828125 C3.72804688 21.22484375 4.35453125 20.6215625 5 20 C1.49102731 15.81576108 -2.08060535 11.80411834 -6 8 C-4.55746343 4.63408134 -2.66735273 2.48952921 0 0 Z " fill="#F8B603" transform="translate(121,54)"/>
<path d="M0 0 C3.32759923 1.55194754 5.48580485 3.30621949 8 6 C6.4721586 9.67689304 4.24372494 11.90198808 1.375 14.625 C-0.12058838 16.04510127 -1.58886398 17.49594968 -3 19 C-3 19.66 -3 20.32 -3 21 C-1.5727568 22.22809298 -0.13961383 23.45048041 1.33203125 24.625 C3.72447313 26.59722375 5.84062716 28.77711619 8 31 C6.55746343 34.36591866 4.66735273 36.51047079 2 39 C-1.36335594 37.54254576 -3.54534005 35.68882146 -6.109375 33.0859375 C-6.86347656 32.32539062 -7.61757812 31.56484375 -8.39453125 30.78125 C-9.17183594 29.9871875 -9.94914062 29.193125 -10.75 28.375 C-11.54277344 27.57320312 -12.33554688 26.77140625 -13.15234375 25.9453125 C-15.10614493 23.96797154 -17.05512103 21.98611091 -19 20 C-14.93161827 15.1088516 -10.65561922 10.52649247 -6.125 6.0625 C-5.23554687 5.17981445 -5.23554687 5.17981445 -4.328125 4.27929688 C-2.88773534 2.85052326 -1.4442033 1.42491868 0 0 Z " fill="#FAE603" transform="translate(77,54)"/>
<path d="M0 0 C13.86 0 27.72 0 42 0 C42 3.3 42 6.6 42 10 C28.14 10 14.28 10 0 10 C0 6.7 0 3.4 0 0 Z " fill="#F5FAFF" transform="translate(58,169)"/>
<path d="M0 0 C1.31872662 0.39651917 2.62997101 0.81798691 3.9375 1.25 C4.66839844 1.48203125 5.39929688 1.7140625 6.15234375 1.953125 C8 3 8 3 8.75317383 4.74194336 C9.08878581 7.81224527 8.1675293 9.42187291 6.796875 12.17578125 C6.31089844 13.16900391 5.82492188 14.16222656 5.32421875 15.18554688 C4.80472656 16.21744141 4.28523438 17.24933594 3.75 18.3125 C2.74363178 20.34968784 1.73839544 22.38743529 0.734375 24.42578125 C0.0218457 25.8636499 0.0218457 25.8636499 -0.70507812 27.33056641 C-2.2493875 30.51410311 -3.65279966 33.72888685 -5 37 C-5.33 37 -5.66 37 -6 37 C-7.51684142 22.87566921 -8.35732042 12.02537128 0 0 Z " fill="#F8B603" transform="translate(106,48)"/>
</svg>
